<svg width="161" height="67" viewBox="0 0 161 67" fill="none" xmlns="http://www.w3.org/2000/svg">
<rect width="161" height="67" fill="#D9D9D9" fill-opacity="0.01"/>
<path d="M13.568 52.768C10.9653 52.768 8.736 52.128 6.88 50.848C5.024 49.568 3.584 47.872 2.56 45.76C1.55733 43.648 1.056 41.3547 1.056 38.88C1.056 36.4053 1.55733 34.112 2.56 32C3.584 29.888 5.024 28.192 6.88 26.912C8.736 25.6107 10.9653 24.96 13.568 24.96C15.1467 24.96 16.5547 25.1947 17.792 25.664C19.0293 26.112 20.032 26.6667 20.8 27.328C21.5893 27.968 22.0907 28.576 22.304 29.152V7.968H33.6V52H22.4V48.064C21.9093 48.896 21.2053 49.6747 20.288 50.4C19.392 51.104 18.3573 51.6693 17.184 52.096C16.032 52.544 14.8267 52.768 13.568 52.768ZM17.184 43.968C18.1867 43.968 19.072 43.744 19.84 43.296C20.608 42.848 21.2053 42.24 21.632 41.472C22.08 40.6827 22.304 39.8187 22.304 38.88C22.304 37.9413 22.08 37.088 21.632 36.32C21.2053 35.5307 20.608 34.912 19.84 34.464C19.072 33.9947 18.1867 33.76 17.184 33.76C16.224 33.76 15.36 33.9947 14.592 34.464C13.824 34.912 13.216 35.5307 12.768 36.32C12.3413 37.088 12.128 37.9413 12.128 38.88C12.128 39.8187 12.3413 40.6827 12.768 41.472C13.216 42.24 13.824 42.848 14.592 43.296C15.36 43.744 16.224 43.968 17.184 43.968ZM35.441 52V25.728H46.737V52H35.441ZM41.233 21.696C39.505 21.696 38.033 21.088 36.817 19.872C35.6223 18.656 35.025 17.2053 35.025 15.52C35.025 13.8347 35.6223 12.3733 36.817 11.136C38.033 9.89867 39.505 9.28 41.233 9.28C42.3637 9.28 43.3983 9.568 44.337 10.144C45.2757 10.6987 46.033 11.4453 46.609 12.384C47.185 13.3227 47.473 14.368 47.473 15.52C47.473 17.2053 46.8543 18.656 45.617 19.872C44.401 21.088 42.9397 21.696 41.233 21.696ZM63.2115 66.08C61.4622 66.08 59.6595 65.9307 57.8035 65.632C55.9475 65.3547 54.1768 64.832 52.4915 64.064C50.8275 63.296 49.3982 62.1867 48.2035 60.736L54.6995 53.856C55.2328 54.4533 55.8622 55.008 56.5875 55.52C57.3128 56.0533 58.1768 56.48 59.1795 56.8C60.1822 57.1413 61.3555 57.312 62.6995 57.312C63.9155 57.312 65.0035 57.1307 65.9635 56.768C66.9235 56.4053 67.6702 55.8293 68.2035 55.04C68.7582 54.272 69.0355 53.28 69.0355 52.064V51.488H80.1715V52.704C80.1715 55.648 79.4142 58.112 77.8995 60.096C76.4062 62.08 74.3795 63.5733 71.8195 64.576C69.2595 65.5787 66.3902 66.08 63.2115 66.08ZM69.0355 52V48.064C68.8222 48.4693 68.3422 49.056 67.5955 49.824C66.8488 50.5707 65.8568 51.2533 64.6195 51.872C63.4035 52.4693 61.9742 52.768 60.3315 52.768C57.7288 52.768 55.4782 52.128 53.5795 50.848C51.6808 49.568 50.2088 47.872 49.1635 45.76C48.1395 43.648 47.6275 41.3547 47.6275 38.88C47.6275 36.4053 48.1395 34.112 49.1635 32C50.2088 29.888 51.6808 28.192 53.5795 26.912C55.4782 25.6107 57.7288 24.96 60.3315 24.96C61.8888 24.96 63.2435 25.1947 64.3955 25.664C65.5688 26.1333 66.5288 26.688 67.2755 27.328C68.0435 27.968 68.5875 28.576 68.9075 29.152V25.728H80.1715V52H69.0355ZM58.7315 38.88C58.7315 39.8187 58.9555 40.6827 59.4035 41.472C59.8515 42.24 60.4595 42.848 61.2275 43.296C61.9955 43.744 62.8702 43.968 63.8515 43.968C64.8328 43.968 65.6968 43.744 66.4435 43.296C67.2115 42.848 67.8088 42.24 68.2355 41.472C68.6835 40.6827 68.9075 39.8187 68.9075 38.88C68.9075 37.9413 68.6835 37.088 68.2355 36.32C67.8088 35.5307 67.2115 34.912 66.4435 34.464C65.6968 33.9947 64.8328 33.76 63.8515 33.76C62.8702 33.76 61.9955 33.9947 61.2275 34.464C60.4595 34.912 59.8515 35.5307 59.4035 36.32C58.9555 37.088 58.7315 37.9413 58.7315 38.88ZM82.261 52V25.728H93.557V52H82.261ZM88.053 21.696C86.325 21.696 84.853 21.088 83.637 19.872C82.4423 18.656 81.845 17.2053 81.845 15.52C81.845 13.8347 82.4423 12.3733 83.637 11.136C84.853 9.89867 86.325 9.28 88.053 9.28C89.1837 9.28 90.2183 9.568 91.157 10.144C92.0957 10.6987 92.853 11.4453 93.429 12.384C94.005 13.3227 94.293 14.368 94.293 15.52C94.293 17.2053 93.6743 18.656 92.437 19.872C91.221 21.088 89.7597 21.696 88.053 21.696ZM93.5195 25.728H97.7435V14.944H108.944V25.728H114.512V34.976H108.944V40.096C108.944 41.0133 109.061 41.8027 109.295 42.464C109.552 43.104 110.085 43.424 110.896 43.424C111.386 43.424 111.824 43.3173 112.208 43.104C112.592 42.8693 112.826 42.7093 112.912 42.624L116.688 50.624C116.517 50.752 115.994 50.9973 115.12 51.36C114.266 51.7013 113.178 52.0213 111.856 52.32C110.554 52.6187 109.103 52.768 107.503 52.768C104.666 52.768 102.33 51.9893 100.495 50.432C98.6608 48.8533 97.7435 46.432 97.7435 43.168V34.976H93.5195V25.728ZM128.526 24.96C130.361 24.96 132.035 25.1093 133.55 25.408C135.086 25.7067 136.355 26.0373 137.358 26.4C138.382 26.7413 139.022 27.008 139.278 27.2L135.726 33.792C135.342 33.5147 134.595 33.152 133.486 32.704C132.398 32.2347 131.193 32 129.87 32C128.995 32 128.27 32.1067 127.694 32.32C127.139 32.512 126.862 32.8533 126.862 33.344C126.862 33.8133 127.193 34.208 127.854 34.528C128.515 34.8267 129.518 35.0933 130.862 35.328C132.078 35.5627 133.358 35.9573 134.702 36.512C136.046 37.0453 137.177 37.8667 138.094 38.976C139.033 40.064 139.502 41.5253 139.502 43.36C139.502 45.3227 139.075 46.9227 138.222 48.16C137.369 49.376 136.249 50.3253 134.862 51.008C133.497 51.6693 132.014 52.128 130.414 52.384C128.835 52.64 127.321 52.768 125.87 52.768C123.737 52.768 121.891 52.576 120.334 52.192C118.777 51.8293 117.529 51.4133 116.59 50.944C115.673 50.4747 115.043 50.112 114.702 49.856L118.19 42.528C118.745 42.976 119.641 43.488 120.878 44.064C122.137 44.64 123.438 44.928 124.782 44.928C125.977 44.928 126.873 44.8 127.47 44.544C128.089 44.2667 128.398 43.8933 128.398 43.424C128.398 43.0613 128.249 42.7627 127.95 42.528C127.651 42.2933 127.214 42.08 126.638 41.888C126.062 41.696 125.337 41.5147 124.462 41.344C123.673 41.1947 122.798 40.9493 121.838 40.608C120.878 40.2453 119.961 39.744 119.086 39.104C118.233 38.464 117.518 37.6533 116.942 36.672C116.387 35.6693 116.11 34.4533 116.11 33.024C116.11 31.1893 116.707 29.6853 117.902 28.512C119.097 27.3173 120.633 26.432 122.51 25.856C124.409 25.2587 126.414 24.96 128.526 24.96ZM147.082 52.768C145.332 52.768 143.828 52.1493 142.57 50.912C141.332 49.6533 140.714 48.1493 140.714 46.4C140.714 44.608 141.332 43.0933 142.57 41.856C143.828 40.5973 145.332 39.968 147.082 39.968C148.852 39.968 150.356 40.5973 151.594 41.856C152.852 43.0933 153.482 44.608 153.482 46.4C153.482 48.1493 152.852 49.6533 151.594 50.912C150.356 52.1493 148.852 52.768 147.082 52.768Z" fill="#FF6900"/>
<path d="M132.674 18V9.624H138.374V11.244H134.498V12.96H137.822V14.568H134.498V16.38H138.374V18H132.674ZM141.787 18H139.963V9.624H143.935C144.319 9.624 144.667 9.688 144.979 9.816C145.291 9.944 145.555 10.128 145.771 10.368C145.995 10.6 146.167 10.88 146.287 11.208C146.407 11.536 146.467 11.9 146.467 12.3C146.467 12.868 146.339 13.364 146.083 13.788C145.835 14.212 145.455 14.52 144.943 14.712L146.587 18H144.559L143.095 14.928H141.787V18ZM143.707 13.392C143.979 13.392 144.191 13.324 144.343 13.188C144.503 13.044 144.583 12.836 144.583 12.564V12.036C144.583 11.764 144.503 11.56 144.343 11.424C144.191 11.28 143.979 11.208 143.707 11.208H141.787V13.392H143.707ZM148.049 18V9.624H152.009C152.401 9.624 152.753 9.692 153.065 9.828C153.377 9.956 153.641 10.136 153.857 10.368C154.081 10.6 154.253 10.884 154.373 11.22C154.493 11.548 154.553 11.908 154.553 12.3C154.553 12.7 154.493 13.064 154.373 13.392C154.253 13.72 154.081 14 153.857 14.232C153.641 14.464 153.377 14.648 153.065 14.784C152.753 14.912 152.401 14.976 152.009 14.976H149.873V18H148.049ZM149.873 13.392H151.793C152.065 13.392 152.277 13.324 152.429 13.188C152.589 13.044 152.669 12.836 152.669 12.564V12.036C152.669 11.764 152.589 11.56 152.429 11.424C152.277 11.28 152.065 11.208 151.793 11.208H149.873V13.392Z" fill="#383636"/>
</svg>
